  0
SECTION
  2
HEADER
  9
$ACADVER
  1
AC1009
  9
$INSBASE
 10
0.0
 20
0.0
 30
0.0
  9
$EXTMIN
 10
0.0
 20
0.0
 30
0.0
  9
$EXTMAX
 10
100.0
 20
100.0
 30
0.0
  9
$UNITMODE
 70
0
  9
$AUNITS
 70
0
  9
$ANGBASE
 50
0.0
  9
$ANGDIR
 70
0
  0
ENDSEC
  0
SECTION
  2
TABLES
  0
TABLE
  2
LTYPE
 70
20
  0
LTYPE
  2
CONTINUOUS
 70
0
  3
Solid
 72
65
 73
0
 40
0.0
  0
LTYPE
  2
CENTER
 70
0
  3
Center ____ _ ____ _ ____ _ ____ _ ____ _ ____
 72
65
 73
4
 40
2.0
 49
1.25
 49
-0.25
 49
0.25
 49
-0.25
  0
LTYPE
  2
CENTERX2
 70
0
  3
Center (2x) ________  __  ________  __  ________
 72
65
 73
4
 40
3.5
 49
2.5
 49
-0.25
 49
0.5
 49
-0.25
  0
LTYPE
  2
CENTER2
 70
0
  3
Center (.5x) ____ _ ____ _ ____ _ ____ _ ____
 72
65
 73
4
 40
1.0
 49
0.625
 49
-0.125
 49
0.125
 49
-0.125
  0
LTYPE
  2
DASHED
 70
0
  3
Dashed __ __ __ __ __ __ __ __ __ __ __ __ __ _
 72
65
 73
2
 40
0.6
 49
0.5
 49
-0.1
  0
LTYPE
  2
DASHEDX2
 70
0
  3
Dashed (2x) ____  ____  ____  ____  ____  ____
 72
65
 73
2
 40
1.2
 49
1.0
 49
-0.2
  0
LTYPE
  2
DASHED2
 70
0
  3
Dashed (.5x) _ _ _ _ _ _ _ _ _ _ _ _ _ _
 72
65
 73
2
 40
0.3
 49
0.25
 49
-0.05
  0
LTYPE
  2
PHANTOM
 70
0
  3
Phantom ______  __  __  ______  __  __  ______
 72
65
 73
6
 40
2.5
 49
1.25
 49
-0.25
 49
0.25
 49
-0.25
 49
0.25
 49
-0.25
  0
LTYPE
  2
PHANTOMX2
 70
0
  3
Phantom (2x)____________    ____    ____    ____________
 72
65
 73
6
 40
4.25
 49
2.5
 49
-0.25
 49
0.5
 49
-0.25
 49
0.5
 49
-0.25
  0
LTYPE
  2
PHANTOM2
 70
0
  3
Phantom (.5x) ___ _ _ ___ _ _ ___ _ _ ___ _ _ ___
 72
65
 73
6
 40
1.25
 49
0.625
 49
-0.125
 49
0.125
 49
-0.125
 49
0.125
 49
-0.125
  0
LTYPE
  2
DASHDOT
 70
0
  3
Dash dot __ . __ . __ . __ . __ . __ . __ . __
 72
65
 73
4
 40
1.4
 49
1.0
 49
-0.2
 49
0.0
 49
-0.2
  0
LTYPE
  2
DASHDOTX2
 70
0
  3
Dash dot (2x) ____  .  ____  .  ____  .  ____
 72
65
 73
4
 40
2.4
 49
2.0
 49
-0.2
 49
0.0
 49
-0.2
  0
LTYPE
  2
DASHDOT2
 70
0
  3
Dash dot (.5x) _ . _ . _ . _ . _ . _ . _ . _
 72
65
 73
4
 40
0.7
 49
0.5
 49
-0.1
 49
0.0
 49
-0.1
  0
LTYPE
  2
DOT
 70
0
  3
Dot .  .  .  .  .  .  .  .  .  .  .  .  .  .  .  .
 72
65
 73
2
 40
0.2
 49
0.0
 49
-0.2
  0
LTYPE
  2
DOTX2
 70
0
  3
Dot (2x) .    .    .    .    .    .    .    . 
 72
65
 73
2
 40
0.4
 49
0.0
 49
-0.4
  0
LTYPE
  2
DOT2
 70
0
  3
Dot (.5) . . . . . . . . . . . . . . . . . . . 
 72
65
 73
2
 40
0.1
 49
0.0
 49
-0.1
  0
LTYPE
  2
DIVIDE
 70
0
  3
Divide __ . . __ . . __ . . __ . . __ . . __
 72
65
 73
6
 40
1.6
 49
1.0
 49
-0.2
 49
0.0
 49
-0.2
 49
0.0
 49
-0.2
  0
LTYPE
  2
DIVIDEX2
 70
0
  3
Divide (2x) ____  . .  ____  . .  ____  . .  ____
 72
65
 73
6
 40
2.6
 49
2.0
 49
-0.2
 49
0.0
 49
-0.2
 49
0.0
 49
-0.2
  0
LTYPE
  2
DIVIDE2
 70
0
  3
Divide(.5x) _ . _ . _ . _ . _ . _ . _ . _
 72
65
 73
6
 40
0.8
 49
0.5
 49
-0.1
 49
0.0
 49
-0.1
 49
0.0
 49
-0.1
  0
LTYPE
  2
DOTTED
 70
0
  3

 72
65
 73
2
 40
1.0
 49
0.0
 49
-1.0
  0
ENDTAB
  0
TABLE
  2
LAYER
 70
5
  0
LAYER
  2
DIMENSIONS
 70
0
 62
1
  6
CONTINUOUS
  0
LAYER
  2
TABLEBACKGROUND
 70
0
 62
1
  6
CONTINUOUS
  0
LAYER
  2
TABLECONTENT
 70
0
 62
1
  6
CONTINUOUS
  0
LAYER
  2
TABLEGRID
 70
0
 62
1
  6
CONTINUOUS
  0
LAYER
  2
VIEWPORTS
 70
0
 62
7
  6
CONTINUOUS
  0
ENDTAB
  0
TABLE
  2
STYLE
 70
12
  0
STYLE
  2
STANDARD
 70
0
 40
0.0
 41
1.0
 42
1.0
 50
0.0
 71
0
  3
arial.ttf
  4

  0
STYLE
  2
ARIAL
 70
0
 40
0.0
 41
1.0
 42
1.0
 50
0.0
 71
0
  3
arial.ttf
  4

  0
STYLE
  2
ARIAL_BOLD
 70
0
 40
0.0
 41
1.0
 42
1.0
 50
0.0
 71
0
  3
arialbd.ttf
  4

  0
STYLE
  2
ARIAL_ITALIC
 70
0
 40
0.0
 41
1.0
 42
1.0
 50
0.0
 71
0
  3
ariali.ttf
  4

  0
STYLE
  2
ARIAL_BOLD_ITALIC
 70
0
 40
0.0
 41
1.0
 42
1.0
 50
0.0
 71
0
  3
arialbi.ttf
  4

  0
STYLE
  2
ARIAL_BLACK
 70
0
 40
0.0
 41
1.0
 42
1.0
 50
0.0
 71
0
  3
ariblk.ttf
  4

  0
STYLE
  2
ISOCPEUR
 70
0
 40
0.0
 41
1.0
 42
1.0
 50
0.0
 71
0
  3
isocpeur.ttf
  4

  0
STYLE
  2
ISOCPEUR_ITALIC
 70
0
 40
0.0
 41
1.0
 42
1.0
 50
0.0
 71
0
  3
isocpeui.ttf
  4

  0
STYLE
  2
TIMES
 70
0
 40
0.0
 41
1.0
 42
1.0
 50
0.0
 71
0
  3
times.ttf
  4

  0
STYLE
  2
TIMES_BOLD
 70
0
 40
0.0
 41
1.0
 42
1.0
 50
0.0
 71
0
  3
timesbd.ttf
  4

  0
STYLE
  2
TIMES_ITALIC
 70
0
 40
0.0
 41
1.0
 42
1.0
 50
0.0
 71
0
  3
timesi.ttf
  4

  0
STYLE
  2
TIMES_BOLD_ITALIC
 70
0
 40
0.0
 41
1.0
 42
1.0
 50
0.0
 71
0
  3
timesbi.ttf
  4

  0
ENDTAB
  0
TABLE
  2
VIEW
 70
0
  0
ENDTAB
  0
TABLE
  2
APPID
 70
1
  0
APPID
  2
DXFWRITE
 70
0
  0
ENDTAB
  0
TABLE
  2
VPORT
 70
0
  0
ENDTAB
  0
TABLE
  2
UCS
 70
0
  0
ENDTAB
  0
ENDSEC
  0
SECTION
  2
BLOCKS
  0
ENDSEC
  0
SECTION
  2
ENTITIES
  0
VIEWPORT
  8
VIEWPORTS
 67
1
 10
0.0
 20
0.0
 30
0.0
 40
1.0
 41
1.0
 68
1
 69
1
1001
ACAD
1000
MVIEW
1002
{
1070
16
1010
0.0
1020
0.0
1030
0.0
1010
0.0
1020
0.0
1030
0.0
1040
0.0
1040
1.0
1040
0.0
1040
0.0
1040
50.0
1040
0.0
1040
0.0
1070
0
1070
100
1070
1
1070
3
1070
0
1070
0
1070
0
1070
0
1040
0.0
1040
0.0
1040
0.0
1040
0.1
1040
0.1
1040
0.1
1040
0.1
1070
0
1002
{
1002
}
1002
}
  0
LINE
  6
DOTTED
 62
1
  8
0
 10
130.0
 20
53.851648000000004
 30
0.0
 11
130.0
 21
153.851648
 31
0.0
  0
LINE
  6
DOTTED
 62
1
  8
0
 10
80.0
 20
53.851648000000004
 30
0.0
 11
80.0
 21
153.851648
 31
0.0
  0
LINE
  6
DOTTED
 62
1
  8
0
 10
105.0
 20
53.851648000000004
 30
0.0
 11
80.0
 21
53.851648000000004
 31
0.0
  0
LINE
  6
DOTTED
 62
1
  8
0
 10
130.0
 20
53.851648000000004
 30
0.0
 11
105.0
 21
53.851648000000004
 31
0.0
  0
LINE
  6
DOTTED
 62
1
  8
0
 10
105.0
 20
-7.134504187433777e-08
 30
0.0
 11
80.0
 21
53.851648000000004
 31
0.0
  0
LINE
 62
5
  8
0
 10
71.51320686867435
 20
33.97156470018156
 30
0.0
 11
65.75660343433717
 21
39.81150361779138
 31
0.0
  0
LINE
 62
5
  8
0
 10
105.00000000000001
 20
-7.13450560851925e-08
 30
0.0
 11
71.51320686867435
 21
33.97156470018156
 31
0.0
  0
LINE
  6
DOTTED
 62
1
  8
0
 10
80.0
 20
53.851648000000004
 30
0.0
 11
65.75660343433717
 21
39.81150361779138
 31
0.0
  0
LINE
  6
DOTTED
 62
3
  8
0
 10
80.0
 20
53.851648000000004
 30
0.0
 11
59.99999999999999
 21
45.6514425354012
 31
0.0
  0
LINE
 62
5
  8
0
 10
65.75660343433718
 20
39.81150361779138
 30
0.0
 11
59.99999999999999
 21
45.6514425354012
 31
0.0
  0
LINE
  6
DOTTED
 62
3
  8
0
 10
60.0
 20
53.85164800000001
 30
0.0
 11
60.0
 21
45.6514425354012
 31
0.0
  0
LINE
  6
DOTTED
 62
1
  8
0
 10
80.0
 20
53.851648000000004
 30
0.0
 11
60.0
 21
53.85164800000001
 31
0.0
  0
LINE
 62
5
  8
0
 10
57.266598178467056
 20
53.85164800000001
 30
0.0
 11
59.99999999999999
 21
53.85164800000001
 31
0.0
  0
LINE
 62
5
  8
0
 10
57.266598178467056
 20
45.6514425354012
 30
0.0
 11
57.266598178467056
 21
53.85164800000001
 31
0.0
  0
LINE
 62
5
  8
0
 10
59.99999999999999
 20
45.6514425354012
 30
0.0
 11
57.266598178467056
 21
45.6514425354012
 31
0.0
  0
LINE
  6
DOTTED
 62
1
  8
0
 10
60.0
 20
53.851648000000004
 30
0.0
 11
60.000000000000036
 21
153.851648
 31
0.0
  0
LINE
  6
DOTTED
 62
1
  8
0
 10
60.000000000000036
 20
153.851648
 30
0.0
 11
80.00000000000004
 21
153.851648
 31
0.0
  0
LINE
  6
DOTTED
 62
3
  8
0
 10
60.000000000000036
 20
162.05185346459885
 30
0.0
 11
80.00000000000004
 21
153.851648
 31
0.0
  0
LINE
  6
DOTTED
 62
3
  8
0
 10
60.000000000000036
 20
162.05185346459885
 30
0.0
 11
60.000000000000036
 21
153.851648
 31
0.0
  0
LINE
 62
5
  8
0
 10
60.000000000000036
 20
162.05185346459885
 30
0.0
 11
65.75660343433721
 21
167.89179238220865
 31
0.0
  0
LINE
  6
DOTTED
 62
1
  8
0
 10
65.75660343433721
 20
167.89179238220865
 30
0.0
 11
80.00000000000004
 21
153.851648
 31
0.0
  0
LINE
  6
DOTTED
 62
1
  8
0
 10
105.00000000000007
 20
207.70329607134508
 30
0.0
 11
80.00000000000004
 21
153.851648
 31
0.0
  0
LINE
 62
5
  8
0
 10
71.51320686867439
 20
173.73173129981848
 30
0.0
 11
105.00000000000007
 21
207.70329607134508
 31
0.0
  0
LINE
 62
5
  8
0
 10
65.7566034343372
 20
167.89179238220865
 30
0.0
 11
71.51320686867439
 21
173.73173129981848
 31
0.0
  0
LINE
  6
DOTTED
 62
1
  8
0
 10
80.00000000000004
 20
153.851648
 30
0.0
 11
105.00000000000003
 21
153.851648
 31
0.0
  0
LINE
  6
DOTTED
 62
1
  8
0
 10
105.00000000000003
 20
153.851648
 30
0.0
 11
130.0
 21
153.85164799999998
 31
0.0
  0
LINE
  6
DOTTED
 62
1
  8
0
 10
105.00000000000006
 20
207.70329607134508
 30
0.0
 11
130.0
 21
153.85164799999998
 31
0.0
  0
LINE
 62
5
  8
0
 10
138.4867931313257
 20
173.73173129981845
 30
0.0
 11
144.24339656566286
 21
167.89179238220862
 31
0.0
  0
LINE
 62
5
  8
0
 10
105.00000000000006
 20
207.70329607134508
 30
0.0
 11
138.4867931313257
 21
173.73173129981845
 31
0.0
  0
LINE
  6
DOTTED
 62
1
  8
0
 10
130.0
 20
153.851648
 30
0.0
 11
144.24339656566286
 21
167.89179238220862
 31
0.0
  0
LINE
  6
DOTTED
 62
3
  8
0
 10
130.0
 20
153.85164799999998
 30
0.0
 11
150.00000000000003
 21
162.05185346459876
 31
0.0
  0
LINE
 62
5
  8
0
 10
144.24339656566286
 20
167.8917923822086
 30
0.0
 11
150.00000000000003
 21
162.05185346459876
 31
0.0
  0
LINE
  6
DOTTED
 62
3
  8
0
 10
150.0
 20
153.85164799999998
 30
0.0
 11
150.00000000000003
 21
162.05185346459876
 31
0.0
  0
LINE
  6
DOTTED
 62
1
  8
0
 10
130.00000000000003
 20
153.85164799999998
 30
0.0
 11
150.0
 21
153.85164799999998
 31
0.0
  0
LINE
 62
5
  8
0
 10
152.73340182153294
 20
153.85164799999998
 30
0.0
 11
150.0
 21
153.85164799999998
 31
0.0
  0
LINE
 62
5
  8
0
 10
152.73340182153296
 20
162.05185346459876
 30
0.0
 11
152.73340182153294
 21
153.85164799999998
 31
0.0
  0
LINE
 62
5
  8
0
 10
150.00000000000003
 20
162.05185346459876
 30
0.0
 11
152.73340182153296
 21
162.05185346459876
 31
0.0
  0
LINE
 62
5
  8
0
 10
150.0
 20
153.85164799999998
 30
0.0
 11
149.99999999999994
 21
53.851647999999955
 31
0.0
  0
LINE
  6
DOTTED
 62
1
  8
0
 10
149.99999999999994
 20
53.851647999999955
 30
0.0
 11
129.99999999999994
 21
53.851647999999976
 31
0.0
  0
LINE
  6
DOTTED
 62
3
  8
0
 10
149.99999999999994
 20
45.651442535401145
 30
0.0
 11
129.99999999999994
 21
53.851647999999976
 31
0.0
  0
LINE
  6
DOTTED
 62
3
  8
0
 10
149.99999999999994
 20
45.651442535401145
 30
0.0
 11
149.99999999999994
 21
53.85164799999995
 31
0.0
  0
LINE
 62
5
  8
0
 10
149.99999999999994
 20
45.651442535401145
 30
0.0
 11
144.24339656566278
 21
39.81150361779133
 31
0.0
  0
LINE
  6
DOTTED
 62
1
  8
0
 10
144.24339656566278
 20
39.81150361779133
 30
0.0
 11
129.99999999999994
 21
53.851647999999976
 31
0.0
  0
LINE
  6
DOTTED
 62
1
  8
0
 10
104.99999999999987
 20
-7.134504187433777e-08
 30
0.0
 11
129.99999999999994
 21
53.851647999999976
 31
0.0
  0
LINE
 62
5
  8
0
 10
138.48679313132558
 20
33.97156470018154
 30
0.0
 11
104.99999999999987
 21
-7.134504187433777e-08
 31
0.0
  0
LINE
 62
5
  8
0
 10
144.24339656566278
 20
39.81150361779133
 30
0.0
 11
138.48679313132558
 21
33.97156470018154
 31
0.0
  0
LINE
 62
5
  8
0
 10
152.73340182153285
 20
45.65144253540114
 30
0.0
 11
149.99999999999994
 21
45.651442535401145
 31
0.0
  0
LINE
 62
5
  8
0
 10
152.73340182153288
 20
53.85164799999995
 30
0.0
 11
152.73340182153285
 21
45.65144253540114
 31
0.0
  0
LINE
 62
5
  8
0
 10
149.99999999999994
 20
53.85164799999995
 30
0.0
 11
152.73340182153288
 21
53.85164799999995
 31
0.0
  0
LINE
 62
5
  8
0
 10
57.2665981784671
 20
162.05185346459885
 30
0.0
 11
60.000000000000036
 21
162.05185346459885
 31
0.0
  0
LINE
 62
5
  8
0
 10
57.2665981784671
 20
153.851648
 30
0.0
 11
57.2665981784671
 21
162.05185346459885
 31
0.0
  0
LINE
 62
5
  8
0
 10
60.000000000000036
 20
153.851648
 30
0.0
 11
57.2665981784671
 21
153.851648
 31
0.0
  0
LINE
 62
5
  8
0
 10
60.000000000000036
 20
153.851648
 30
0.0
 11
60.000000000000036
 21
153.851648
 31
0.0
  0
LINE
 62
5
  8
0
 10
60.00000000000002
 20
120.51831466666668
 30
0.0
 11
60.000000000000036
 21
153.851648
 31
0.0
  0
LINE
 62
5
  8
0
 10
60.0
 20
53.851648000000004
 30
0.0
 11
60.000000000000014
 21
87.18498133333333
 31
0.0
  0
LINE
 62
5
  8
0
 10
60.0
 20
53.851648000000004
 30
0.0
 11
60.0
 21
53.851648000000004
 31
0.0
  0
LINE
 62
5
  8
0
 10
10.00000000000003
 20
120.5183146666667
 30
0.0
 11
60.00000000000002
 21
120.51831466666668
 31
0.0
  0
LINE
 62
5
  8
0
 10
60.00000000000001
 20
87.18498133333333
 30
0.0
 11
10.000000000000016
 21
87.18498133333335
 31
0.0
  0
LINE
 62
5
  8
0
 10
10.000000000000002
 20
87.18498133333335
 30
0.0
 11
9.999999999999986
 21
53.85164800000002
 31
0.0
  0
LINE
 62
5
  8
0
 10
10.000000000000016
 20
153.851648
 30
0.0
 11
10.000000000000016
 21
120.5183146666667
 31
0.0
  0
LINE
 62
5
  8
0
 10
10.000000000000016
 20
153.851648
 30
0.0
 11
10.000000000000016
 21
153.851648
 31
0.0
  0
LINE
  6
DOTTED
 62
1
  8
0
 10
10.000000000000016
 20
153.851648
 30
0.0
 11
9.999999999999986
 21
53.85164800000002
 31
0.0
  0
LINE
 62
5
  8
0
 10
9.999999999999986
 20
53.85164800000002
 30
0.0
 11
9.999999999999986
 21
53.85164800000002
 31
0.0
  0
LINE
 62
5
  8
0
 10
4.263256414560602e-14
 20
153.851648
 30
0.0
 11
10.00000000000003
 21
153.851648
 31
0.0
  0
LINE
 62
5
  8
0
 10
0.0
 20
53.85164800000002
 30
0.0
 11
4.263256414560602e-14
 21
153.851648
 31
0.0
  0
LINE
 62
5
  8
0
 10
10.000000000000002
 20
53.85164800000002
 30
0.0
 11
0.0
 21
53.85164800000002
 31
0.0
  0
LINE
 62
5
  8
0
 10
71.40786804847946
 20
37.35482121234262
 30
0.0
 11
69.13799662747853
 21
39.65755243235412
 31
0.0
  0
LINE
 62
5
  8
0
 10
69.13799662747853
 20
39.65755243235412
 30
0.0
 11
68.78191171333695
 21
39.306548822798916
 31
0.0
  0
LINE
 62
5
  8
0
 10
68.78191171333695
 20
39.306548822798916
 30
0.0
 11
71.05178313433788
 21
37.003817602787414
 31
0.0
  0
LINE
 62
5
  8
0
 10
71.05178313433788
 20
37.003817602787414
 30
0.0
 11
71.40786804847946
 21
37.35482121234262
 31
0.0
  0
LINE
 62
5
  8
0
 10
57.94994863385029
 20
48.38484435693414
 30
0.0
 11
59.31664954461676
 21
48.38484435693414
 31
0.0
  0
LINE
 62
5
  8
0
 10
59.31664954461676
 20
48.38484435693414
 30
0.0
 11
59.31664954461676
 21
51.118246178467075
 31
0.0
  0
LINE
 62
5
  8
0
 10
59.31664954461676
 20
51.118246178467075
 30
0.0
 11
57.94994863385029
 21
51.118246178467075
 31
0.0
  0
LINE
 62
5
  8
0
 10
69.13799662747856
 20
168.04574356764593
 30
0.0
 11
71.40786804847949
 21
170.3484747876574
 31
0.0
  0
LINE
 62
5
  8
0
 10
71.40786804847949
 20
170.3484747876574
 30
0.0
 11
71.05178313433795
 21
170.69947839721263
 31
0.0
  0
LINE
 62
5
  8
0
 10
71.05178313433795
 20
170.69947839721263
 30
0.0
 11
68.781911713337
 21
168.39674717720115
 31
0.0
  0
LINE
 62
5
  8
0
 10
68.781911713337
 20
168.39674717720115
 30
0.0
 11
69.13799662747856
 21
168.04574356764593
 31
0.0
  0
LINE
 62
5
  8
0
 10
138.5921319515206
 20
170.34847478765738
 30
0.0
 11
140.8620033725215
 21
168.04574356764587
 31
0.0
  0
LINE
 62
5
  8
0
 10
140.8620033725215
 20
168.04574356764587
 30
0.0
 11
141.21808828666306
 21
168.3967471772011
 31
0.0
  0
LINE
 62
5
  8
0
 10
141.21808828666306
 20
168.3967471772011
 30
0.0
 11
138.94821686566215
 21
170.69947839721257
 31
0.0
  0
LINE
 62
5
  8
0
 10
138.94821686566215
 20
170.69947839721257
 30
0.0
 11
138.5921319515206
 21
170.34847478765738
 31
0.0
  0
LINE
 62
5
  8
0
 10
152.05005136614972
 20
159.31845164306583
 30
0.0
 11
150.68335045538328
 21
159.31845164306583
 31
0.0
  0
LINE
 62
5
  8
0
 10
150.68335045538328
 20
159.31845164306583
 30
0.0
 11
150.68335045538328
 21
156.5850498215329
 31
0.0
  0
LINE
 62
5
  8
0
 10
150.68335045538328
 20
156.5850498215329
 30
0.0
 11
152.05005136614972
 21
156.5850498215329
 31
0.0
  0
LINE
 62
5
  8
0
 10
142.25
 20
90.46528436363633
 30
0.0
 11
142.24999999999997
 21
71.78346618181816
 31
0.0
  0
LINE
 62
5
  8
0
 10
142.24999999999997
 20
71.78346618181816
 30
0.0
 11
142.74999999999997
 21
71.78346618181816
 31
0.0
  0
LINE
 62
5
  8
0
 10
142.74999999999997
 20
71.78346618181816
 30
0.0
 11
142.75
 21
90.46528436363633
 31
0.0
  0
LINE
 62
5
  8
0
 10
142.75
 20
90.46528436363633
 30
0.0
 11
142.25
 21
90.46528436363633
 31
0.0
  0
LINE
 62
5
  8
0
 10
142.25000000000003
 20
135.9198298181818
 30
0.0
 11
142.25000000000003
 21
117.23801163636362
 31
0.0
  0
LINE
 62
5
  8
0
 10
142.25000000000003
 20
117.23801163636362
 30
0.0
 11
142.75000000000003
 21
117.23801163636362
 31
0.0
  0
LINE
 62
5
  8
0
 10
142.75000000000003
 20
117.23801163636362
 30
0.0
 11
142.75000000000003
 21
135.9198298181818
 31
0.0
  0
LINE
 62
5
  8
0
 10
142.75000000000003
 20
135.9198298181818
 30
0.0
 11
142.25000000000003
 21
135.9198298181818
 31
0.0
  0
LINE
 62
5
  8
0
 10
140.8620033725214
 20
39.65755243235409
 30
0.0
 11
138.59213195152046
 21
37.35482121234259
 31
0.0
  0
LINE
 62
5
  8
0
 10
138.59213195152046
 20
37.35482121234259
 30
0.0
 11
138.94821686566203
 21
37.003817602787365
 31
0.0
  0
LINE
 62
5
  8
0
 10
138.94821686566203
 20
37.003817602787365
 30
0.0
 11
141.21808828666298
 21
39.30654882279888
 31
0.0
  0
LINE
 62
5
  8
0
 10
141.21808828666298
 20
39.30654882279888
 30
0.0
 11
140.8620033725214
 21
39.65755243235409
 31
0.0
  0
LINE
 62
5
  8
0
 10
152.05005136614966
 20
51.11824617846702
 30
0.0
 11
150.68335045538316
 21
51.11824617846702
 31
0.0
  0
LINE
 62
5
  8
0
 10
150.68335045538316
 20
51.11824617846702
 30
0.0
 11
150.68335045538316
 21
48.38484435693408
 31
0.0
  0
LINE
 62
5
  8
0
 10
150.68335045538316
 20
48.38484435693408
 30
0.0
 11
152.05005136614966
 21
48.38484435693408
 31
0.0
  0
LINE
 62
5
  8
0
 10
57.94994863385033
 20
156.58504982153295
 30
0.0
 11
59.3166495446168
 21
156.58504982153295
 31
0.0
  0
LINE
 62
5
  8
0
 10
59.3166495446168
 20
156.58504982153295
 30
0.0
 11
59.3166495446168
 21
159.31845164306588
 31
0.0
  0
LINE
 62
5
  8
0
 10
59.3166495446168
 20
159.31845164306588
 30
0.0
 11
57.94994863385033
 21
159.31845164306588
 31
0.0
  0
LINE
 62
5
  8
0
 10
2.5000000000000004
 20
72.0334661818182
 30
0.0
 11
2.5000000000000004
 21
67.0334661818182
 31
0.0
  0
LINE
 62
5
  8
0
 10
2.5000000000000004
 20
67.0334661818182
 30
0.0
 11
7.500000000000001
 21
72.0334661818182
 31
0.0
  0
LINE
 62
5
  8
0
 10
7.500000000000001
 20
72.0334661818182
 30
0.0
 11
7.500000000000015
 21
90.21528436363639
 31
0.0
  0
LINE
 62
5
  8
0
 10
7.500000000000015
 20
90.21528436363639
 30
0.0
 11
2.500000000000014
 21
95.2152843636364
 31
0.0
  0
LINE
 62
5
  8
0
 10
2.500000000000014
 20
95.2152843636364
 30
0.0
 11
2.500000000000014
 21
90.21528436363639
 31
0.0
  0
LINE
 62
5
  8
0
 10
2.5000000000000284
 20
117.48801163636368
 30
0.0
 11
2.500000000000014
 21
112.48801163636367
 31
0.0
  0
LINE
 62
5
  8
0
 10
2.500000000000014
 20
112.48801163636367
 30
0.0
 11
7.500000000000029
 21
117.48801163636368
 31
0.0
  0
LINE
 62
5
  8
0
 10
7.500000000000029
 20
117.48801163636368
 30
0.0
 11
7.500000000000029
 21
135.66982981818185
 31
0.0
  0
LINE
 62
5
  8
0
 10
7.500000000000029
 20
135.66982981818185
 30
0.0
 11
2.5000000000000284
 21
140.66982981818182
 31
0.0
  0
LINE
 62
5
  8
0
 10
2.5000000000000284
 20
140.66982981818182
 30
0.0
 11
2.5000000000000284
 21
135.66982981818185
 31
0.0
  0
LINE
 62
5
  8
0
 10
162.733401821533
 20
103.85164800000001
 30
0.0
 11
162.733401821533
 21
103.85164800000001
 31
0.0
  0
LINE
 62
5
  8
0
 10
162.733401821533
 20
137.18498133333335
 30
0.0
 11
162.733401821533
 21
103.85164800000001
 31
0.0
  0
LINE
 62
5
  8
0
 10
162.733401821533
 20
137.18498133333335
 30
0.0
 11
162.733401821533
 21
137.18498133333335
 31
0.0
  0
LINE
 62
5
  8
0
 10
162.733401821533
 20
103.85164800000001
 30
0.0
 11
162.733401821533
 21
137.18498133333335
 31
0.0
  0
LINE
 62
5
  8
0
 10
172.73340182153296
 20
103.85164800000001
 30
0.0
 11
172.73340182153296
 21
103.85164800000001
 31
0.0
  0
LINE
 62
5
  8
0
 10
172.73340182153296
 20
137.18498133333335
 30
0.0
 11
172.73340182153296
 21
103.85164800000001
 31
0.0
  0
LINE
 62
5
  8
0
 10
172.73340182153296
 20
137.18498133333335
 30
0.0
 11
172.73340182153296
 21
137.18498133333335
 31
0.0
  0
LINE
 62
5
  8
0
 10
172.73340182153296
 20
103.85164800000001
 30
0.0
 11
172.73340182153296
 21
137.18498133333335
 31
0.0
  0
LINE
 62
5
  8
0
 10
182.733401821533
 20
103.85164800000001
 30
0.0
 11
182.733401821533
 21
103.85164800000001
 31
0.0
  0
LINE
 62
5
  8
0
 10
182.733401821533
 20
137.18498133333335
 30
0.0
 11
182.733401821533
 21
103.85164800000001
 31
0.0
  0
LINE
 62
5
  8
0
 10
182.733401821533
 20
137.18498133333335
 30
0.0
 11
182.733401821533
 21
137.18498133333335
 31
0.0
  0
LINE
 62
5
  8
0
 10
182.733401821533
 20
103.85164800000001
 30
0.0
 11
182.733401821533
 21
137.18498133333335
 31
0.0
  0
LINE
 62
5
  8
0
 10
192.733401821533
 20
103.85164800000001
 30
0.0
 11
192.733401821533
 21
103.85164800000001
 31
0.0
  0
LINE
 62
5
  8
0
 10
192.733401821533
 20
137.18498133333335
 30
0.0
 11
192.733401821533
 21
103.85164800000001
 31
0.0
  0
LINE
 62
5
  8
0
 10
192.733401821533
 20
137.18498133333335
 30
0.0
 11
192.733401821533
 21
137.18498133333335
 31
0.0
  0
LINE
 62
5
  8
0
 10
192.733401821533
 20
103.85164800000001
 30
0.0
 11
192.733401821533
 21
137.18498133333335
 31
0.0
  0
LINE
 62
5
  8
0
 10
202.733401821533
 20
103.85164800000001
 30
0.0
 11
202.733401821533
 21
103.85164800000001
 31
0.0
  0
LINE
 62
5
  8
0
 10
202.733401821533
 20
137.18498133333335
 30
0.0
 11
202.733401821533
 21
103.85164800000001
 31
0.0
  0
LINE
 62
5
  8
0
 10
202.733401821533
 20
137.18498133333335
 30
0.0
 11
202.733401821533
 21
137.18498133333335
 31
0.0
  0
LINE
 62
5
  8
0
 10
202.733401821533
 20
103.85164800000001
 30
0.0
 11
202.733401821533
 21
137.18498133333335
 31
0.0
  0
LINE
 62
5
  8
0
 10
212.733401821533
 20
103.85164800000001
 30
0.0
 11
212.733401821533
 21
103.85164800000001
 31
0.0
  0
LINE
 62
5
  8
0
 10
212.733401821533
 20
137.18498133333335
 30
0.0
 11
212.733401821533
 21
103.85164800000001
 31
0.0
  0
LINE
 62
5
  8
0
 10
212.733401821533
 20
137.18498133333335
 30
0.0
 11
212.733401821533
 21
137.18498133333335
 31
0.0
  0
LINE
 62
5
  8
0
 10
212.733401821533
 20
103.85164800000001
 30
0.0
 11
212.733401821533
 21
137.18498133333335
 31
0.0
  0
LINE
 62
5
  8
0
 10
222.733401821533
 20
103.85164800000001
 30
0.0
 11
222.733401821533
 21
103.85164800000001
 31
0.0
  0
LINE
 62
5
  8
0
 10
222.733401821533
 20
137.18498133333335
 30
0.0
 11
222.733401821533
 21
103.85164800000001
 31
0.0
  0
LINE
 62
5
  8
0
 10
222.733401821533
 20
137.18498133333335
 30
0.0
 11
222.733401821533
 21
137.18498133333335
 31
0.0
  0
LINE
 62
5
  8
0
 10
222.733401821533
 20
103.85164800000001
 30
0.0
 11
222.733401821533
 21
137.18498133333335
 31
0.0
  0
LINE
 62
5
  8
0
 10
232.733401821533
 20
103.85164800000001
 30
0.0
 11
232.733401821533
 21
103.85164800000001
 31
0.0
  0
LINE
 62
5
  8
0
 10
232.733401821533
 20
137.18498133333335
 30
0.0
 11
232.733401821533
 21
103.85164800000001
 31
0.0
  0
LINE
 62
5
  8
0
 10
232.733401821533
 20
137.18498133333335
 30
0.0
 11
232.733401821533
 21
137.18498133333335
 31
0.0
  0
LINE
 62
5
  8
0
 10
232.733401821533
 20
103.85164800000001
 30
0.0
 11
232.733401821533
 21
137.18498133333335
 31
0.0
  0
LINE
 62
5
  8
0
 10
242.733401821533
 20
103.85164800000001
 30
0.0
 11
242.733401821533
 21
103.85164800000001
 31
0.0
  0
LINE
 62
5
  8
0
 10
242.733401821533
 20
137.18498133333335
 30
0.0
 11
242.733401821533
 21
103.85164800000001
 31
0.0
  0
LINE
 62
5
  8
0
 10
242.733401821533
 20
137.18498133333335
 30
0.0
 11
242.733401821533
 21
137.18498133333335
 31
0.0
  0
LINE
 62
5
  8
0
 10
242.733401821533
 20
103.85164800000001
 30
0.0
 11
242.733401821533
 21
137.18498133333335
 31
0.0
  0
ENDSEC
  0
EOF
